<mxfile host="app.diagrams.net" modified="2020-09-28T21:43:55.483Z" agent="5.0 (X11; Linux x86_64) AppleWebKit/537.36 (KHTML, like Gecko) Chrome/85.0.4183.102 Safari/537.36" etag="6Q3E-M6kDbqMijvR_bIW" version="13.7.6" type="github" pages="2">
  <diagram id="X04kz2w6pJ2BwtQYNW_F" name="Familia Materna">
    <mxGraphModel dx="3776" dy="3931" grid="0" gridSize="10" guides="1" tooltips="1" connect="1" arrows="1" fold="1" page="1" pageScale="1" pageWidth="1169" pageHeight="827" background="none" math="0" shadow="0">
      <root>
        <mxCell id="0" />
        <mxCell id="1" parent="0" />
        <mxCell id="87gTp5nq9IZYHDgL9Xju-52" style="edgeStyle=none;rounded=1;sketch=0;jumpStyle=none;orthogonalLoop=1;jettySize=auto;html=1;exitX=0.5;exitY=0;exitDx=0;exitDy=0;entryX=0.043;entryY=0.689;entryDx=0;entryDy=0;entryPerimeter=0;startArrow=classicThin;startFill=1;endArrow=none;endFill=0;strokeColor=#000000;strokeWidth=2;" edge="1" parent="1" source="GxdyiY9G9Qyw1W-CdfA0-1" target="87gTp5nq9IZYHDgL9Xju-21">
          <mxGeometry relative="1" as="geometry" />
        </mxCell>
        <mxCell id="GxdyiY9G9Qyw1W-CdfA0-1" value="&lt;b&gt;Aracy Peçanha Gonçalves&lt;br&gt;&lt;/b&gt;&lt;br&gt;Profissão: Costureira&lt;br&gt;&lt;br&gt;25-07-1929 -&amp;nbsp; 08-08-2019" style="rounded=1;whiteSpace=wrap;html=1;strokeWidth=2;shadow=0;glass=0;sketch=0;fillStyle=dots;fillColor=none;" vertex="1" parent="1">
          <mxGeometry x="1004" y="-441" width="233.66" height="124.62" as="geometry" />
        </mxCell>
        <mxCell id="87gTp5nq9IZYHDgL9Xju-50" style="edgeStyle=none;rounded=1;sketch=0;jumpStyle=none;orthogonalLoop=1;jettySize=auto;html=1;exitX=0.5;exitY=0;exitDx=0;exitDy=0;entryX=0.846;entryY=-0.002;entryDx=0;entryDy=0;entryPerimeter=0;startArrow=classicThin;startFill=1;endArrow=none;endFill=0;strokeColor=#000000;strokeWidth=2;" edge="1" parent="1" source="GxdyiY9G9Qyw1W-CdfA0-2" target="87gTp5nq9IZYHDgL9Xju-48">
          <mxGeometry relative="1" as="geometry" />
        </mxCell>
        <mxCell id="GxdyiY9G9Qyw1W-CdfA0-2" value="Paulo Gonçalves&lt;br&gt;&lt;br&gt;Profissão: Gráfico&amp;nbsp;&lt;br&gt;&lt;br&gt;1932 - 2010" style="rounded=1;whiteSpace=wrap;html=1;strokeWidth=2;shadow=0;glass=0;sketch=0;fillStyle=dots;fillColor=none;" vertex="1" parent="1">
          <mxGeometry x="700" y="-419" width="222.47" height="111.24" as="geometry" />
        </mxCell>
        <mxCell id="GxdyiY9G9Qyw1W-CdfA0-76" style="edgeStyle=none;rounded=1;sketch=0;jumpStyle=none;orthogonalLoop=1;jettySize=auto;html=1;exitX=0.5;exitY=0;exitDx=0;exitDy=0;entryX=0.75;entryY=1;entryDx=0;entryDy=0;startArrow=none;startFill=0;endArrow=classicThin;endFill=1;strokeColor=#000000;strokeWidth=2;" edge="1" parent="1" source="GxdyiY9G9Qyw1W-CdfA0-9" target="GxdyiY9G9Qyw1W-CdfA0-72">
          <mxGeometry relative="1" as="geometry">
            <mxPoint x="478.3699999999999" y="66.9999999999995" as="targetPoint" />
          </mxGeometry>
        </mxCell>
        <mxCell id="87gTp5nq9IZYHDgL9Xju-60" style="edgeStyle=none;rounded=1;sketch=0;jumpStyle=none;orthogonalLoop=1;jettySize=auto;html=1;exitX=0.5;exitY=1;exitDx=0;exitDy=0;entryX=0.5;entryY=1;entryDx=0;entryDy=0;startArrow=classicThin;startFill=1;endArrow=none;endFill=0;strokeColor=#000000;strokeWidth=2;" edge="1" parent="1" source="GxdyiY9G9Qyw1W-CdfA0-9" target="GxdyiY9G9Qyw1W-CdfA0-82">
          <mxGeometry relative="1" as="geometry" />
        </mxCell>
        <mxCell id="GxdyiY9G9Qyw1W-CdfA0-9" value="Rosângela Gonçalves da Costa" style="rounded=1;whiteSpace=wrap;html=1;strokeWidth=2;shadow=0;glass=0;sketch=0;fillStyle=dots;fillColor=none;" vertex="1" parent="1">
          <mxGeometry x="421" y="31.51000000000001" width="221.49" height="103.02" as="geometry" />
        </mxCell>
        <mxCell id="GxdyiY9G9Qyw1W-CdfA0-87" style="edgeStyle=none;rounded=1;sketch=0;jumpStyle=none;orthogonalLoop=1;jettySize=auto;html=1;entryX=0.1;entryY=0.5;entryDx=0;entryDy=0;entryPerimeter=0;startArrow=none;startFill=0;endArrow=classicThin;endFill=1;strokeColor=#000000;strokeWidth=2;" edge="1" parent="1" source="GxdyiY9G9Qyw1W-CdfA0-10" target="GxdyiY9G9Qyw1W-CdfA0-72">
          <mxGeometry relative="1" as="geometry">
            <mxPoint x="778.8250800000001" y="88.99579999999969" as="targetPoint" />
          </mxGeometry>
        </mxCell>
        <mxCell id="GxdyiY9G9Qyw1W-CdfA0-10" value="Rosilene Gonçalves Soares" style="rounded=1;whiteSpace=wrap;html=1;strokeWidth=2;shadow=0;glass=0;sketch=0;fillStyle=dots;fillColor=none;" vertex="1" parent="1">
          <mxGeometry x="866.88" y="30.01" width="211.98" height="105.99" as="geometry" />
        </mxCell>
        <mxCell id="GxdyiY9G9Qyw1W-CdfA0-85" style="edgeStyle=none;rounded=1;sketch=0;jumpStyle=none;orthogonalLoop=1;jettySize=auto;html=1;exitX=0.5;exitY=0;exitDx=0;exitDy=0;entryX=0.962;entryY=-0.003;entryDx=0;entryDy=0;startArrow=none;startFill=0;endArrow=classicThin;endFill=1;strokeColor=#000000;strokeWidth=2;entryPerimeter=0;" edge="1" parent="1" source="GxdyiY9G9Qyw1W-CdfA0-11" target="GxdyiY9G9Qyw1W-CdfA0-72">
          <mxGeometry relative="1" as="geometry">
            <mxPoint x="1098.83" y="93.20999999999981" as="targetPoint" />
          </mxGeometry>
        </mxCell>
        <mxCell id="GxdyiY9G9Qyw1W-CdfA0-11" value="Paulo Gonçalves Filho" style="rounded=1;whiteSpace=wrap;html=1;strokeWidth=2;shadow=0;glass=0;sketch=0;fillStyle=dots;fillColor=none;" vertex="1" parent="1">
          <mxGeometry x="1348" y="30.009999999999998" width="200" height="100" as="geometry" />
        </mxCell>
        <mxCell id="GxdyiY9G9Qyw1W-CdfA0-21" value="Lincoln Rodrigues Soares" style="rounded=1;whiteSpace=wrap;html=1;strokeWidth=2;shadow=0;glass=0;sketch=0;fillStyle=dots;fillColor=none;" vertex="1" parent="1">
          <mxGeometry x="1095" y="30.009999999999998" width="209.04" height="104.52" as="geometry" />
        </mxCell>
        <mxCell id="87gTp5nq9IZYHDgL9Xju-61" style="edgeStyle=none;rounded=1;sketch=0;jumpStyle=none;orthogonalLoop=1;jettySize=auto;html=1;exitX=0.5;exitY=1;exitDx=0;exitDy=0;entryX=0.5;entryY=0;entryDx=0;entryDy=0;startArrow=classicThin;startFill=1;endArrow=none;endFill=0;strokeColor=#000000;strokeWidth=2;" edge="1" parent="1" source="GxdyiY9G9Qyw1W-CdfA0-25" target="GxdyiY9G9Qyw1W-CdfA0-82">
          <mxGeometry relative="1" as="geometry" />
        </mxCell>
        <mxCell id="87gTp5nq9IZYHDgL9Xju-68" style="rounded=1;sketch=0;jumpStyle=none;orthogonalLoop=1;jettySize=auto;html=1;exitX=0;exitY=0.5;exitDx=0;exitDy=0;entryX=0.1;entryY=0.5;entryDx=0;entryDy=0;entryPerimeter=0;startArrow=classicThin;startFill=1;endArrow=none;endFill=0;strokeColor=#000000;strokeWidth=2;" edge="1" parent="1" source="GxdyiY9G9Qyw1W-CdfA0-25" target="87gTp5nq9IZYHDgL9Xju-65">
          <mxGeometry relative="1" as="geometry" />
        </mxCell>
        <mxCell id="GxdyiY9G9Qyw1W-CdfA0-25" value="Getúlio Pinto da Costa Filho" style="rounded=1;whiteSpace=wrap;html=1;strokeWidth=2;shadow=0;glass=0;sketch=0;fillStyle=dots;fillColor=none;" vertex="1" parent="1">
          <mxGeometry x="183" y="32.97" width="189" height="98.61" as="geometry" />
        </mxCell>
        <mxCell id="GxdyiY9G9Qyw1W-CdfA0-26" value="Sheila Gonçalves da Silva" style="rounded=1;whiteSpace=wrap;html=1;strokeWidth=2;shadow=0;glass=0;sketch=0;fillStyle=dots;fillColor=none;" vertex="1" parent="1">
          <mxGeometry x="1578" y="33.01" width="194" height="97" as="geometry" />
        </mxCell>
        <mxCell id="GxdyiY9G9Qyw1W-CdfA0-83" style="edgeStyle=none;rounded=1;sketch=0;jumpStyle=none;orthogonalLoop=1;jettySize=auto;html=1;entryX=0.1;entryY=0.5;entryDx=0;entryDy=0;entryPerimeter=0;startArrow=none;startFill=0;endArrow=classicThin;endFill=1;strokeColor=#000000;strokeWidth=2;" edge="1" parent="1" source="GxdyiY9G9Qyw1W-CdfA0-40" target="GxdyiY9G9Qyw1W-CdfA0-82">
          <mxGeometry relative="1" as="geometry" />
        </mxCell>
        <mxCell id="GxdyiY9G9Qyw1W-CdfA0-40" value="George Sued Gonçalves da Costa" style="rounded=1;whiteSpace=wrap;html=1;strokeWidth=2;shadow=0;glass=0;sketch=0;fillStyle=dots;fillColor=none;strokeColor=#009999;" vertex="1" parent="1">
          <mxGeometry x="284" y="237" width="232.29" height="88" as="geometry" />
        </mxCell>
        <mxCell id="GxdyiY9G9Qyw1W-CdfA0-78" style="edgeStyle=none;rounded=1;sketch=0;jumpStyle=none;orthogonalLoop=1;jettySize=auto;html=1;exitX=0.1;exitY=0.5;exitDx=0;exitDy=0;exitPerimeter=0;entryX=0.1;entryY=0.5;entryDx=0;entryDy=0;entryPerimeter=0;startArrow=classicThin;startFill=1;endArrow=none;endFill=0;strokeColor=#000000;strokeWidth=2;" edge="1" parent="1" source="87gTp5nq9IZYHDgL9Xju-51" target="GxdyiY9G9Qyw1W-CdfA0-72">
          <mxGeometry relative="1" as="geometry">
            <mxPoint x="567.685" y="4.875000000000455" as="sourcePoint" />
          </mxGeometry>
        </mxCell>
        <mxCell id="GxdyiY9G9Qyw1W-CdfA0-72" value="" style="shape=curlyBracket;whiteSpace=wrap;html=1;rounded=1;shadow=0;glass=0;sketch=0;strokeWidth=2;fillColor=none;gradientColor=none;rotation=90;size=0.5;" vertex="1" parent="1">
          <mxGeometry x="953.26" y="-464.95" width="45.23" height="888.95" as="geometry" />
        </mxCell>
        <mxCell id="GxdyiY9G9Qyw1W-CdfA0-82" value="" style="shape=curlyBracket;whiteSpace=wrap;html=1;rounded=1;shadow=0;glass=0;sketch=0;strokeWidth=2;fillColor=none;gradientColor=none;rotation=-90;size=0.5;" vertex="1" parent="1">
          <mxGeometry x="387.86" y="85.2" width="34.28" height="255.8" as="geometry" />
        </mxCell>
        <mxCell id="87gTp5nq9IZYHDgL9Xju-54" style="edgeStyle=orthogonalEdgeStyle;rounded=1;sketch=0;jumpStyle=none;orthogonalLoop=1;jettySize=auto;html=1;exitX=1;exitY=0.5;exitDx=0;exitDy=0;startArrow=classicThin;startFill=1;endArrow=none;endFill=0;strokeColor=#000000;strokeWidth=2;" edge="1" parent="1" source="GxdyiY9G9Qyw1W-CdfA0-84" target="GxdyiY9G9Qyw1W-CdfA0-117">
          <mxGeometry relative="1" as="geometry" />
        </mxCell>
        <mxCell id="GxdyiY9G9Qyw1W-CdfA0-84" value="&lt;b&gt;Maria Peçanha de Oliveira&lt;/b&gt;&lt;br&gt;&lt;br&gt;etnia: Preta&lt;b&gt;&amp;nbsp;&lt;br&gt;&lt;br&gt;&lt;/b&gt;(Após Maria de Oliveira)&lt;br&gt;&lt;br&gt;Profissão:&amp;nbsp; Lavadeira&lt;br&gt;&lt;br&gt;~1895 - 1960" style="rounded=1;whiteSpace=wrap;html=1;strokeWidth=2;shadow=0;glass=0;sketch=0;fillStyle=dots;fillColor=none;" vertex="1" parent="1">
          <mxGeometry x="2112" y="-933.81" width="290" height="145" as="geometry" />
        </mxCell>
        <mxCell id="GxdyiY9G9Qyw1W-CdfA0-104" style="edgeStyle=none;rounded=1;sketch=0;jumpStyle=none;orthogonalLoop=1;jettySize=auto;html=1;startArrow=none;startFill=0;endArrow=classicThin;endFill=1;strokeColor=#000000;strokeWidth=2;entryX=0.55;entryY=0.95;entryDx=0;entryDy=0;entryPerimeter=0;" edge="1" parent="1" source="GxdyiY9G9Qyw1W-CdfA0-88" target="GxdyiY9G9Qyw1W-CdfA0-105">
          <mxGeometry relative="1" as="geometry">
            <mxPoint x="1848.5467814906933" y="-1086.9961969518372" as="targetPoint" />
          </mxGeometry>
        </mxCell>
        <mxCell id="GxdyiY9G9Qyw1W-CdfA0-88" value="&lt;b&gt;Benedito Peçanha&lt;/b&gt;&lt;br&gt;&lt;br&gt;etnia: Branco&lt;br&gt;&lt;br&gt;Profissão: Oficial da Marinha&lt;br&gt;&lt;br&gt;~xxxx - 1941 ( Morreu no hospital perto dos correios no centro)" style="rounded=1;whiteSpace=wrap;html=1;strokeWidth=2;shadow=0;glass=0;sketch=0;fillStyle=dots;fillColor=none;" vertex="1" parent="1">
          <mxGeometry x="1687.75" y="-943" width="267.78" height="156" as="geometry" />
        </mxCell>
        <mxCell id="87gTp5nq9IZYHDgL9Xju-14" style="rounded=1;sketch=0;jumpStyle=none;orthogonalLoop=1;jettySize=auto;html=1;exitX=0.5;exitY=1;exitDx=0;exitDy=0;entryX=0.928;entryY=-0.004;entryDx=0;entryDy=0;entryPerimeter=0;startArrow=none;startFill=0;endArrow=classicThin;endFill=1;strokeColor=#000000;strokeWidth=2;" edge="1" parent="1" source="GxdyiY9G9Qyw1W-CdfA0-89" target="87gTp5nq9IZYHDgL9Xju-9">
          <mxGeometry relative="1" as="geometry" />
        </mxCell>
        <mxCell id="GxdyiY9G9Qyw1W-CdfA0-89" value="&lt;b&gt;Virgulina Gonçalves&lt;/b&gt;&lt;br&gt;&lt;br&gt;etnia: preta&lt;br&gt;&lt;br&gt;Profissão: Empregada Domestica&lt;br&gt;&lt;br&gt;xxxx - xxxx&amp;nbsp;" style="rounded=1;whiteSpace=wrap;html=1;strokeWidth=2;shadow=0;glass=0;sketch=0;fillStyle=dots;fillColor=none;" vertex="1" parent="1">
          <mxGeometry x="296" y="-881.5" width="300" height="150" as="geometry" />
        </mxCell>
        <mxCell id="87gTp5nq9IZYHDgL9Xju-16" style="edgeStyle=none;rounded=1;sketch=0;jumpStyle=none;orthogonalLoop=1;jettySize=auto;html=1;exitX=0.5;exitY=0;exitDx=0;exitDy=0;entryX=0.5;entryY=1;entryDx=0;entryDy=0;startArrow=none;startFill=0;endArrow=classicThin;endFill=1;strokeColor=#000000;strokeWidth=2;" edge="1" parent="1" source="GxdyiY9G9Qyw1W-CdfA0-101" target="GxdyiY9G9Qyw1W-CdfA0-88">
          <mxGeometry relative="1" as="geometry" />
        </mxCell>
        <mxCell id="87gTp5nq9IZYHDgL9Xju-17" style="edgeStyle=none;rounded=1;sketch=0;jumpStyle=none;orthogonalLoop=1;jettySize=auto;html=1;exitX=0.5;exitY=1;exitDx=0;exitDy=0;entryX=0.5;entryY=1;entryDx=0;entryDy=0;startArrow=none;startFill=0;endArrow=classicThin;endFill=1;strokeColor=#000000;strokeWidth=2;" edge="1" parent="1" source="GxdyiY9G9Qyw1W-CdfA0-101" target="GxdyiY9G9Qyw1W-CdfA0-84">
          <mxGeometry relative="1" as="geometry" />
        </mxCell>
        <mxCell id="GxdyiY9G9Qyw1W-CdfA0-101" value="" style="shape=curlyBracket;whiteSpace=wrap;html=1;rounded=1;shadow=0;glass=0;sketch=0;strokeWidth=2;fillColor=none;gradientColor=none;rotation=-90;" vertex="1" parent="1">
          <mxGeometry x="2029.5700000000002" y="-933.81" width="19.05" height="434.58" as="geometry" />
        </mxCell>
        <mxCell id="GxdyiY9G9Qyw1W-CdfA0-105" value="Advindo da Família Peçanha de&lt;br&gt;&amp;nbsp;Campos dos Goytacazes&lt;br&gt;&lt;br&gt;Referência mais provável: Nilo Peçanha" style="ellipse;shape=cloud;whiteSpace=wrap;html=1;" vertex="1" parent="1">
          <mxGeometry x="1651" y="-1364" width="329.3" height="240" as="geometry" />
        </mxCell>
        <mxCell id="GxdyiY9G9Qyw1W-CdfA0-109" value="&lt;b&gt;Oswaldino Peçanha (Guedes)&lt;br&gt;&lt;/b&gt;Sem filhos&lt;br&gt;Profissão: Taifeiro da Marinha&amp;nbsp;&amp;nbsp;&lt;br&gt;&lt;br&gt;xxxx - xxxx&amp;nbsp;" style="rounded=1;whiteSpace=wrap;html=1;strokeWidth=2;shadow=0;glass=0;sketch=0;fillStyle=dots;fillColor=none;" vertex="1" parent="1">
          <mxGeometry x="2384" y="-474" width="251" height="125.5" as="geometry" />
        </mxCell>
        <mxCell id="87gTp5nq9IZYHDgL9Xju-43" style="rounded=1;sketch=0;jumpStyle=none;orthogonalLoop=1;jettySize=auto;html=1;exitX=0.5;exitY=0;exitDx=0;exitDy=0;entryX=0.111;entryY=0.413;entryDx=0;entryDy=0;entryPerimeter=0;startArrow=classicThin;startFill=1;endArrow=none;endFill=0;strokeColor=#000000;strokeWidth=2;" edge="1" parent="1" source="GxdyiY9G9Qyw1W-CdfA0-110" target="87gTp5nq9IZYHDgL9Xju-21">
          <mxGeometry relative="1" as="geometry" />
        </mxCell>
        <mxCell id="GxdyiY9G9Qyw1W-CdfA0-110" value="&lt;b&gt;~ Eulina Peçanha&lt;br&gt;&lt;/b&gt;&lt;br&gt;Profissão: ?&lt;br&gt;&lt;br&gt;xxxx - xxxx&amp;nbsp;" style="rounded=1;whiteSpace=wrap;html=1;strokeWidth=2;shadow=0;glass=0;sketch=0;fillStyle=dots;fillColor=none;" vertex="1" parent="1">
          <mxGeometry x="1299" y="-461.75" width="231" height="115.5" as="geometry" />
        </mxCell>
        <mxCell id="87gTp5nq9IZYHDgL9Xju-31" style="edgeStyle=orthogonalEdgeStyle;rounded=1;sketch=0;jumpStyle=none;orthogonalLoop=1;jettySize=auto;html=1;entryX=0.389;entryY=0.409;entryDx=0;entryDy=0;entryPerimeter=0;startArrow=classicThin;startFill=1;endArrow=none;endFill=0;strokeColor=#000000;strokeWidth=2;" edge="1" parent="1" source="GxdyiY9G9Qyw1W-CdfA0-111" target="87gTp5nq9IZYHDgL9Xju-21">
          <mxGeometry relative="1" as="geometry" />
        </mxCell>
        <mxCell id="GxdyiY9G9Qyw1W-CdfA0-111" value="&lt;b&gt;Jacyr Peçanha&lt;br&gt;&lt;/b&gt;&lt;br&gt;Profissão: ?&amp;nbsp;&amp;nbsp;&lt;br&gt;&lt;br&gt;xxxx - xxxx" style="rounded=1;whiteSpace=wrap;html=1;strokeWidth=2;shadow=0;glass=0;sketch=0;fillStyle=dots;fillColor=none;" vertex="1" parent="1">
          <mxGeometry x="1818" y="-458.56" width="232.21" height="110.06" as="geometry" />
        </mxCell>
        <mxCell id="87gTp5nq9IZYHDgL9Xju-39" style="edgeStyle=orthogonalEdgeStyle;rounded=1;sketch=0;jumpStyle=none;orthogonalLoop=1;jettySize=auto;html=1;exitX=0.5;exitY=0;exitDx=0;exitDy=0;entryX=0.594;entryY=0.272;entryDx=0;entryDy=0;entryPerimeter=0;startArrow=classicThin;startFill=1;endArrow=none;endFill=0;strokeColor=#000000;strokeWidth=2;" edge="1" parent="1" source="GxdyiY9G9Qyw1W-CdfA0-112" target="87gTp5nq9IZYHDgL9Xju-21">
          <mxGeometry relative="1" as="geometry" />
        </mxCell>
        <mxCell id="GxdyiY9G9Qyw1W-CdfA0-112" value="&lt;b&gt;Acyr Cosme Peçanha&lt;br&gt;&lt;/b&gt;&lt;br&gt;Dois Filhos&amp;nbsp;&lt;br&gt;&lt;br&gt;Profissão: Compositor (Império Serrano)&amp;nbsp; e Pedreiro.&amp;nbsp;&lt;br&gt;&lt;br&gt;~ 25-06-1925 - 2004&amp;nbsp;" style="rounded=1;whiteSpace=wrap;html=1;strokeWidth=2;shadow=0;glass=0;sketch=0;fillStyle=dots;fillColor=none;" vertex="1" parent="1">
          <mxGeometry x="2083.34" y="-468" width="261.5" height="121.75" as="geometry" />
        </mxCell>
        <mxCell id="GxdyiY9G9Qyw1W-CdfA0-125" style="edgeStyle=none;rounded=1;sketch=0;jumpStyle=none;orthogonalLoop=1;jettySize=auto;html=1;exitX=0.5;exitY=1;exitDx=0;exitDy=0;entryX=0.5;entryY=0;entryDx=0;entryDy=0;startArrow=classicThin;startFill=1;endArrow=none;endFill=0;strokeColor=#000000;strokeWidth=2;" edge="1" parent="1" source="GxdyiY9G9Qyw1W-CdfA0-113" target="GxdyiY9G9Qyw1W-CdfA0-124">
          <mxGeometry relative="1" as="geometry" />
        </mxCell>
        <mxCell id="87gTp5nq9IZYHDgL9Xju-6" style="edgeStyle=orthogonalEdgeStyle;rounded=1;sketch=0;jumpStyle=none;orthogonalLoop=1;jettySize=auto;html=1;exitX=0.5;exitY=0;exitDx=0;exitDy=0;entryX=0.949;entryY=0.996;entryDx=0;entryDy=0;entryPerimeter=0;startArrow=none;startFill=0;endArrow=classicThin;endFill=1;strokeColor=#000000;strokeWidth=2;" edge="1" parent="1" source="GxdyiY9G9Qyw1W-CdfA0-113" target="GxdyiY9G9Qyw1W-CdfA0-117">
          <mxGeometry relative="1" as="geometry" />
        </mxCell>
        <mxCell id="GxdyiY9G9Qyw1W-CdfA0-113" value="&lt;b&gt;Wilson de Oliveira&lt;br&gt;&lt;/b&gt;&lt;br&gt;Profissão: Marceneiro&lt;br&gt;&lt;br&gt;xxxx - xxxx" style="rounded=1;whiteSpace=wrap;html=1;strokeWidth=2;shadow=0;glass=0;sketch=0;fillStyle=dots;fillColor=none;" vertex="1" parent="1">
          <mxGeometry x="2965.5" y="-480.00000000000006" width="180" height="90" as="geometry" />
        </mxCell>
        <mxCell id="87gTp5nq9IZYHDgL9Xju-7" style="edgeStyle=orthogonalEdgeStyle;rounded=1;sketch=0;jumpStyle=none;orthogonalLoop=1;jettySize=auto;html=1;exitX=0.5;exitY=0;exitDx=0;exitDy=0;entryX=0.931;entryY=-0.003;entryDx=0;entryDy=0;entryPerimeter=0;startArrow=none;startFill=0;endArrow=classicThin;endFill=1;strokeColor=#000000;strokeWidth=2;" edge="1" parent="1" source="GxdyiY9G9Qyw1W-CdfA0-116" target="GxdyiY9G9Qyw1W-CdfA0-117">
          <mxGeometry relative="1" as="geometry" />
        </mxCell>
        <mxCell id="GxdyiY9G9Qyw1W-CdfA0-116" value="&lt;b&gt;Ivo de Oliveira&lt;br&gt;&lt;/b&gt;&lt;br&gt;Profissão: Sargento da PM&lt;br&gt;&lt;br&gt;xxxx - xxxx" style="rounded=1;whiteSpace=wrap;html=1;strokeWidth=2;shadow=0;glass=0;sketch=0;fillStyle=dots;fillColor=none;" vertex="1" parent="1">
          <mxGeometry x="3186.5" y="-480.00000000000006" width="180" height="90" as="geometry" />
        </mxCell>
        <mxCell id="GxdyiY9G9Qyw1W-CdfA0-117" value="" style="shape=curlyBracket;whiteSpace=wrap;html=1;rounded=1;shadow=0;glass=0;sketch=0;strokeWidth=2;fillColor=none;gradientColor=none;rotation=90;" vertex="1" parent="1">
          <mxGeometry x="3122.01" y="-663.74" width="90" height="219.97" as="geometry" />
        </mxCell>
        <mxCell id="87gTp5nq9IZYHDgL9Xju-42" style="edgeStyle=orthogonalEdgeStyle;rounded=1;sketch=0;jumpStyle=none;orthogonalLoop=1;jettySize=auto;html=1;exitX=0.5;exitY=0;exitDx=0;exitDy=0;entryX=0.25;entryY=0.5;entryDx=0;entryDy=0;entryPerimeter=0;startArrow=classicThin;startFill=1;endArrow=none;endFill=0;strokeColor=#000000;strokeWidth=2;" edge="1" parent="1" source="GxdyiY9G9Qyw1W-CdfA0-119" target="87gTp5nq9IZYHDgL9Xju-21">
          <mxGeometry relative="1" as="geometry" />
        </mxCell>
        <mxCell id="GxdyiY9G9Qyw1W-CdfA0-119" value="&lt;b&gt;Adyr Peçanha&lt;br&gt;&lt;/b&gt;&lt;br&gt;Profissão: ?&amp;nbsp;&amp;nbsp;&lt;br&gt;&lt;br&gt;xxxx - xxxx&amp;nbsp;" style="rounded=1;whiteSpace=wrap;html=1;strokeWidth=2;shadow=0;glass=0;sketch=0;fillStyle=dots;fillColor=none;" vertex="1" parent="1">
          <mxGeometry x="1570" y="-461" width="225.47" height="112.74" as="geometry" />
        </mxCell>
        <mxCell id="GxdyiY9G9Qyw1W-CdfA0-120" value="&lt;b&gt;Jair Peçanha&lt;br&gt;&lt;/b&gt;&lt;br&gt;Profissão: Motorneiro&amp;nbsp;&amp;nbsp;&lt;br&gt;&lt;br&gt;27-08-1927 - Atual" style="rounded=1;whiteSpace=wrap;html=1;strokeWidth=2;shadow=0;glass=0;sketch=0;fillStyle=dots;fillColor=none;" vertex="1" parent="1">
          <mxGeometry x="2678.65" y="-471.12" width="238" height="119" as="geometry" />
        </mxCell>
        <mxCell id="87gTp5nq9IZYHDgL9Xju-35" style="edgeStyle=orthogonalEdgeStyle;rounded=1;sketch=0;jumpStyle=none;orthogonalLoop=1;jettySize=auto;html=1;entryX=0.5;entryY=1;entryDx=0;entryDy=0;startArrow=classicThin;startFill=1;endArrow=none;endFill=0;strokeColor=#000000;strokeWidth=2;" edge="1" parent="1" source="GxdyiY9G9Qyw1W-CdfA0-121" target="GxdyiY9G9Qyw1W-CdfA0-110">
          <mxGeometry relative="1" as="geometry" />
        </mxCell>
        <mxCell id="GxdyiY9G9Qyw1W-CdfA0-121" value="Conjugê: ?&lt;br&gt;&lt;br&gt;Filhos&lt;br&gt;&lt;br&gt;Maria Ernestina&lt;br&gt;Maria Carlota&lt;br&gt;Edgar&lt;br&gt;Ana Maria" style="rounded=0;whiteSpace=wrap;html=1;shadow=0;glass=0;sketch=0;strokeWidth=2;fillColor=none;gradientColor=none;" vertex="1" parent="1">
          <mxGeometry x="1308" y="-275.5" width="246" height="168.5" as="geometry" />
        </mxCell>
        <mxCell id="GxdyiY9G9Qyw1W-CdfA0-124" value="Conjugê: Luiza Teixeira de Oliveira&lt;br&gt;&lt;br&gt;Filhos&lt;br&gt;&lt;br&gt;Maura&lt;br&gt;Maurício&lt;br&gt;Gilmar&lt;br&gt;Denise&lt;br&gt;Wilson Filho&lt;br&gt;Ilza" style="rounded=0;whiteSpace=wrap;html=1;shadow=0;glass=0;sketch=0;strokeWidth=2;fillColor=none;gradientColor=none;" vertex="1" parent="1">
          <mxGeometry x="2959" y="-356" width="193" height="160" as="geometry" />
        </mxCell>
        <mxCell id="87gTp5nq9IZYHDgL9Xju-27" style="rounded=1;sketch=0;jumpStyle=none;orthogonalLoop=1;jettySize=auto;html=1;exitX=0.5;exitY=0;exitDx=0;exitDy=0;entryX=0.5;entryY=1;entryDx=0;entryDy=0;startArrow=none;startFill=0;endArrow=classicThin;endFill=1;strokeColor=#000000;strokeWidth=2;" edge="1" parent="1" source="GxdyiY9G9Qyw1W-CdfA0-126" target="GxdyiY9G9Qyw1W-CdfA0-120">
          <mxGeometry relative="1" as="geometry" />
        </mxCell>
        <mxCell id="GxdyiY9G9Qyw1W-CdfA0-126" value="Conjugê: Maria Roque Peçanha&lt;br&gt;&lt;br&gt;Filhos&lt;br&gt;&lt;br&gt;Suely&lt;br&gt;Solange&lt;br&gt;Serginho&lt;br&gt;Silvinha&lt;br&gt;Rosângela ++" style="rounded=0;whiteSpace=wrap;html=1;shadow=0;glass=0;sketch=0;strokeWidth=2;fillColor=none;gradientColor=none;" vertex="1" parent="1">
          <mxGeometry x="2695.82" y="-300" width="203.65" height="160" as="geometry" />
        </mxCell>
        <mxCell id="GxdyiY9G9Qyw1W-CdfA0-128" value="Conjuge: Neide de Oliveira&lt;br&gt;&lt;br&gt;Filhos&lt;br&gt;&lt;br&gt;Waldeir&lt;br&gt;Wagner&lt;br&gt;Waldecir&lt;br&gt;Valéria" style="rounded=0;whiteSpace=wrap;html=1;shadow=0;glass=0;sketch=0;strokeWidth=2;fillColor=none;gradientColor=none;" vertex="1" parent="1">
          <mxGeometry x="3176.75" y="-353.75000000000006" width="199.5" height="157.75" as="geometry" />
        </mxCell>
        <mxCell id="GxdyiY9G9Qyw1W-CdfA0-129" value="" style="endArrow=none;html=1;strokeColor=#000000;strokeWidth=2;exitX=0.5;exitY=1;exitDx=0;exitDy=0;entryX=0.5;entryY=0;entryDx=0;entryDy=0;startArrow=classicThin;startFill=1;endFill=0;" edge="1" parent="1" source="GxdyiY9G9Qyw1W-CdfA0-116" target="GxdyiY9G9Qyw1W-CdfA0-128">
          <mxGeometry width="50" height="50" relative="1" as="geometry">
            <mxPoint x="3091.5" y="-230" as="sourcePoint" />
            <mxPoint x="3141.5" y="-280.00000000000006" as="targetPoint" />
          </mxGeometry>
        </mxCell>
        <mxCell id="87gTp5nq9IZYHDgL9Xju-15" style="edgeStyle=none;rounded=1;sketch=0;jumpStyle=none;orthogonalLoop=1;jettySize=auto;html=1;entryX=0.75;entryY=1;entryDx=0;entryDy=0;startArrow=none;startFill=0;endArrow=classicThin;endFill=1;strokeColor=#000000;strokeWidth=2;" edge="1" parent="1" target="87gTp5nq9IZYHDgL9Xju-9">
          <mxGeometry relative="1" as="geometry">
            <mxPoint x="812.5" y="-727.12" as="sourcePoint" />
          </mxGeometry>
        </mxCell>
        <mxCell id="GxdyiY9G9Qyw1W-CdfA0-131" value="&lt;b&gt;(Patrão)&lt;br&gt;&lt;/b&gt;&lt;br&gt;etnia: Branco (Português)&lt;br&gt;&lt;br&gt;Profissão: ?&lt;br&gt;&lt;br&gt;xxxx - xxxx&amp;nbsp;" style="rounded=1;whiteSpace=wrap;html=1;strokeWidth=2;shadow=0;glass=0;sketch=0;fillStyle=dots;fillColor=none;" vertex="1" parent="1">
          <mxGeometry x="657.5" y="-876" width="289" height="144.5" as="geometry" />
        </mxCell>
        <mxCell id="87gTp5nq9IZYHDgL9Xju-9" value="" style="shape=curlyBracket;whiteSpace=wrap;html=1;rounded=1;shadow=0;glass=0;sketch=0;strokeWidth=2;fillColor=none;gradientColor=none;rotation=-90;" vertex="1" parent="1">
          <mxGeometry x="589.5" y="-802.12" width="80" height="365" as="geometry" />
        </mxCell>
        <mxCell id="87gTp5nq9IZYHDgL9Xju-22" style="edgeStyle=none;rounded=1;sketch=0;jumpStyle=none;orthogonalLoop=1;jettySize=auto;html=1;exitX=0.5;exitY=0.5;exitDx=0;exitDy=0;exitPerimeter=0;startArrow=none;startFill=0;endArrow=classicThin;endFill=1;strokeColor=#000000;strokeWidth=2;" edge="1" parent="1" source="87gTp5nq9IZYHDgL9Xju-21" target="GxdyiY9G9Qyw1W-CdfA0-101">
          <mxGeometry relative="1" as="geometry" />
        </mxCell>
        <mxCell id="87gTp5nq9IZYHDgL9Xju-24" style="rounded=1;sketch=0;jumpStyle=none;orthogonalLoop=1;jettySize=auto;html=1;exitX=0.75;exitY=0.5;exitDx=0;exitDy=0;exitPerimeter=0;startArrow=none;startFill=0;endArrow=classicThin;endFill=1;strokeColor=#000000;strokeWidth=2;edgeStyle=orthogonalEdgeStyle;" edge="1" parent="1" source="87gTp5nq9IZYHDgL9Xju-21" target="GxdyiY9G9Qyw1W-CdfA0-120">
          <mxGeometry relative="1" as="geometry">
            <Array as="points">
              <mxPoint x="2740" y="-534" />
              <mxPoint x="2740" y="-491" />
              <mxPoint x="2798" y="-491" />
            </Array>
          </mxGeometry>
        </mxCell>
        <mxCell id="87gTp5nq9IZYHDgL9Xju-25" style="edgeStyle=orthogonalEdgeStyle;rounded=1;sketch=0;jumpStyle=none;orthogonalLoop=1;jettySize=auto;html=1;exitX=0.75;exitY=0.5;exitDx=0;exitDy=0;exitPerimeter=0;entryX=0.5;entryY=0;entryDx=0;entryDy=0;startArrow=none;startFill=0;endArrow=classicThin;endFill=1;strokeColor=#000000;strokeWidth=2;" edge="1" parent="1" source="87gTp5nq9IZYHDgL9Xju-21" target="GxdyiY9G9Qyw1W-CdfA0-109">
          <mxGeometry relative="1" as="geometry" />
        </mxCell>
        <mxCell id="87gTp5nq9IZYHDgL9Xju-21" value="" style="shape=crossbar;whiteSpace=wrap;html=1;rounded=1;shadow=0;glass=0;sketch=0;strokeWidth=2;fillColor=none;gradientColor=none;" vertex="1" parent="1">
          <mxGeometry x="1151" y="-545" width="1764" height="20.73" as="geometry" />
        </mxCell>
        <mxCell id="87gTp5nq9IZYHDgL9Xju-49" style="edgeStyle=none;rounded=1;sketch=0;jumpStyle=none;orthogonalLoop=1;jettySize=auto;html=1;exitX=0.5;exitY=0;exitDx=0;exitDy=0;entryX=0.75;entryY=1;entryDx=0;entryDy=0;startArrow=classicThin;startFill=1;endArrow=none;endFill=0;strokeColor=#000000;strokeWidth=2;" edge="1" parent="1" source="87gTp5nq9IZYHDgL9Xju-45" target="87gTp5nq9IZYHDgL9Xju-48">
          <mxGeometry relative="1" as="geometry" />
        </mxCell>
        <mxCell id="87gTp5nq9IZYHDgL9Xju-45" value="Rodolfo Gonçalves&lt;br&gt;Data?" style="rounded=1;whiteSpace=wrap;html=1;strokeWidth=2;shadow=0;glass=0;sketch=0;fillStyle=dots;fillColor=none;" vertex="1" parent="1">
          <mxGeometry x="338.5" y="-419" width="220" height="110" as="geometry" />
        </mxCell>
        <mxCell id="87gTp5nq9IZYHDgL9Xju-47" style="edgeStyle=none;rounded=1;sketch=0;jumpStyle=none;orthogonalLoop=1;jettySize=auto;html=1;startArrow=classicThin;startFill=1;endArrow=none;endFill=0;strokeColor=#000000;strokeWidth=2;" edge="1" parent="1" source="87gTp5nq9IZYHDgL9Xju-46" target="87gTp5nq9IZYHDgL9Xju-45">
          <mxGeometry relative="1" as="geometry" />
        </mxCell>
        <mxCell id="87gTp5nq9IZYHDgL9Xju-46" value="Conjugê: Celina&lt;br&gt;&lt;br&gt;Filhos&lt;br&gt;&lt;br&gt;Diucélia&lt;br&gt;Célia&lt;br&gt;Célio&lt;br&gt;" style="rounded=0;whiteSpace=wrap;html=1;shadow=0;glass=0;sketch=0;strokeWidth=2;fillColor=none;gradientColor=none;" vertex="1" parent="1">
          <mxGeometry x="296" y="-272" width="305" height="146.5" as="geometry" />
        </mxCell>
        <mxCell id="87gTp5nq9IZYHDgL9Xju-48" value="" style="shape=curlyBracket;whiteSpace=wrap;html=1;rounded=1;shadow=0;glass=0;sketch=0;strokeWidth=2;fillColor=none;gradientColor=none;rotation=-90;direction=west;" vertex="1" parent="1">
          <mxGeometry x="589.5" y="-738" width="80" height="365" as="geometry" />
        </mxCell>
        <mxCell id="87gTp5nq9IZYHDgL9Xju-51" value="" style="shape=curlyBracket;whiteSpace=wrap;html=1;rounded=1;shadow=0;glass=0;sketch=0;strokeWidth=2;fillColor=none;gradientColor=none;rotation=-90;" vertex="1" parent="1">
          <mxGeometry x="931" y="-457.37" width="80" height="365" as="geometry" />
        </mxCell>
        <mxCell id="87gTp5nq9IZYHDgL9Xju-69" style="edgeStyle=none;rounded=1;sketch=0;jumpStyle=none;orthogonalLoop=1;jettySize=auto;html=1;exitX=0.5;exitY=0;exitDx=0;exitDy=0;entryX=0.922;entryY=0.001;entryDx=0;entryDy=0;entryPerimeter=0;startArrow=classicThin;startFill=1;endArrow=none;endFill=0;strokeColor=#000000;strokeWidth=2;" edge="1" parent="1" source="87gTp5nq9IZYHDgL9Xju-63" target="87gTp5nq9IZYHDgL9Xju-65">
          <mxGeometry relative="1" as="geometry" />
        </mxCell>
        <mxCell id="87gTp5nq9IZYHDgL9Xju-63" value="Gleice Farias da Costa" style="rounded=1;whiteSpace=wrap;html=1;strokeWidth=2;shadow=0;glass=0;sketch=0;fillStyle=dots;fillColor=none;" vertex="1" parent="1">
          <mxGeometry x="-32" y="224" width="189" height="98.61" as="geometry" />
        </mxCell>
        <mxCell id="87gTp5nq9IZYHDgL9Xju-65" value="" style="shape=curlyBracket;whiteSpace=wrap;html=1;rounded=1;shadow=0;glass=0;sketch=0;strokeWidth=2;fillColor=none;rotation=90;" vertex="1" parent="1">
          <mxGeometry x="-234.5" y="-138" width="85" height="510" as="geometry" />
        </mxCell>
        <mxCell id="87gTp5nq9IZYHDgL9Xju-70" style="edgeStyle=none;rounded=1;sketch=0;jumpStyle=none;orthogonalLoop=1;jettySize=auto;html=1;exitX=0.5;exitY=0;exitDx=0;exitDy=0;entryX=0.401;entryY=0.499;entryDx=0;entryDy=0;entryPerimeter=0;startArrow=classicThin;startFill=1;endArrow=none;endFill=0;strokeColor=#000000;strokeWidth=2;" edge="1" parent="1" source="87gTp5nq9IZYHDgL9Xju-66" target="87gTp5nq9IZYHDgL9Xju-65">
          <mxGeometry relative="1" as="geometry" />
        </mxCell>
        <mxCell id="87gTp5nq9IZYHDgL9Xju-66" value="Getúlio Pinto da Costa Neto" style="rounded=1;whiteSpace=wrap;html=1;strokeWidth=2;shadow=0;glass=0;sketch=0;fillStyle=dots;fillColor=none;" vertex="1" parent="1">
          <mxGeometry x="-289" y="226.39" width="189" height="98.61" as="geometry" />
        </mxCell>
        <mxCell id="87gTp5nq9IZYHDgL9Xju-71" style="edgeStyle=none;rounded=1;sketch=0;jumpStyle=none;orthogonalLoop=1;jettySize=auto;html=1;exitX=0.5;exitY=0;exitDx=0;exitDy=0;startArrow=classicThin;startFill=1;endArrow=none;endFill=0;strokeColor=#000000;strokeWidth=2;entryX=0.972;entryY=0.998;entryDx=0;entryDy=0;entryPerimeter=0;" edge="1" parent="1" source="87gTp5nq9IZYHDgL9Xju-67" target="87gTp5nq9IZYHDgL9Xju-65">
          <mxGeometry relative="1" as="geometry" />
        </mxCell>
        <mxCell id="87gTp5nq9IZYHDgL9Xju-67" value="Franklin da Costa" style="rounded=1;whiteSpace=wrap;html=1;strokeWidth=2;shadow=0;glass=0;sketch=0;fillStyle=dots;fillColor=none;" vertex="1" parent="1">
          <mxGeometry x="-540" y="224" width="189" height="98.61" as="geometry" />
        </mxCell>
      </root>
    </mxGraphModel>
  </diagram>
  <diagram id="sA0s7KzQx460w5JGkKBO" name="Familia Paterna">
    <mxGraphModel dx="1117" dy="1803" grid="1" gridSize="10" guides="1" tooltips="1" connect="1" arrows="1" fold="1" page="1" pageScale="1" pageWidth="1169" pageHeight="827" math="0" shadow="0">
      <root>
        <mxCell id="Mev56ew3hSFlO5mb7391-0" />
        <mxCell id="Mev56ew3hSFlO5mb7391-1" parent="Mev56ew3hSFlO5mb7391-0" />
        <mxCell id="F7hhXdF862kpJOrahPso-0" value="Getúlio Pinto da Costa&lt;br&gt;&lt;br&gt;xxxx - xxxx" style="rounded=1;whiteSpace=wrap;html=1;strokeWidth=2;shadow=0;glass=0;sketch=0;fillStyle=dots;fillColor=none;" vertex="1" parent="Mev56ew3hSFlO5mb7391-1">
          <mxGeometry x="796.71" y="-230" width="210" height="105" as="geometry" />
        </mxCell>
        <mxCell id="F7hhXdF862kpJOrahPso-1" value="Francisca André da Costa&lt;br&gt;&lt;br&gt;Profissão:&amp;nbsp;&lt;br&gt;&lt;br&gt;xxxx - xxxx" style="rounded=1;whiteSpace=wrap;html=1;strokeWidth=2;shadow=0;glass=0;sketch=0;fillStyle=dots;fillColor=none;" vertex="1" parent="Mev56ew3hSFlO5mb7391-1">
          <mxGeometry x="560" y="-227.5" width="200" height="100" as="geometry" />
        </mxCell>
      </root>
    </mxGraphModel>
  </diagram>
</mxfile>
